# xmcd
#
# Track frame offsets: 
#        150
#        15487
#        32508
#        49772
#        69604
#
# Disc length: 1143 seconds
#
# Revision: 0
# Processed by: cddbd v1.5.2PL0 Copyright (c) Steve Scherf et al.
# Submitted via: ExactAudioCopy v1.2
#
DISCID=36047505
DTITLE=Mandy McMillan - Mandy McMillan
DYEAR=2015
DGENRE=Country
TTITLE0=Good Girls Don't Kiss in Bars
TTITLE1=Linger
TTITLE2=Geronimo
TTITLE3=Call My Name
TTITLE4=Dust
EXTD=
EXTT0=
EXTT1=
EXTT2=
EXTT3=
EXTT4=
PLAYORDER=
